<svg xmlns="http://www.w3.org/2000/svg" x="0px" y="0px"
width="48" height="48"
viewBox="0 0 172 172"
style=" fill:#000000;"><g fill="none" fill-rule="nonzero" stroke="none" stroke-width="1" stroke-linecap="butt" stroke-linejoin="miter" stroke-miterlimit="10" stroke-dasharray="" stroke-dashoffset="0" font-family="none" font-weight="none" font-size="none" text-anchor="none" style="mix-blend-mode: normal"><path d="M0,172v-172h172v172z" fill="#ffffff"></path><g><path d="M60.34692,27.88192c-7.32075,0.26517 -25.63158,1.3115 -30.36158,6.90508c-3.12108,3.69083 -3.98825,8.84725 -3.5905,13.66325c0.39775,4.816 1.9135,9.46 3.053,14.15775c5.86233,24.19825 1.62683,56.69192 1.28283,81.58892c-0.03942,2.74125 0.00358,5.61867 1.32942,8.0195c1.7845,3.22858 5.47175,4.86975 9.01208,5.90175c19.91975,5.79425 44.75225,-1.0535 65.489,-0.387c5.13133,0.16483 17.4365,0.79192 22.54992,0.32967c5.11342,-0.46225 12.21917,-2.37933 15.72725,-6.1275c4.3215,-4.61533 5.2675,-11.36633 5.83367,-17.66225c2.60867,-29.01067 1.49783,-65.446 -1.9565,-94.37067c-0.387,-3.23575 -0.85283,-6.60767 -2.69825,-9.29517c-2.66242,-3.87 -9.56392,-5.26033 -14.25808,-5.2675c-4.69417,-0.00717 -18.576,1.04992 -23.20567,1.8275" fill="#2ecc71"></path><path d="M63.75825,33.91267c-3.08883,2.0425 -11.03308,0.39417 -14.37992,1.978c-4.18175,1.98158 -4.65475,7.65758 -4.40392,12.28008c1.36167,24.97583 6.42492,60.61567 4.59383,85.56283c-0.172,2.32917 -0.24367,5.0525 1.55875,6.536c1.44408,1.18608 3.51883,1.06783 5.37858,0.89942c20.92667,-1.90992 52.61767,-0.85283 73.61242,0.09317c0.9675,0.043 2.0855,0.02508 2.69825,-0.72383c0.31175,-0.38342 0.42642,-0.88867 0.52675,-1.37242c6.02358,-29.23283 2.28975,-71.78133 -1.58025,-101.37608c-0.1075,-0.83492 -0.23292,-1.70925 -0.73817,-2.38292c-0.5805,-0.774 -1.548,-1.13592 -2.4725,-1.419c-3.27517,-1.00333 -11.8465,-1.54442 -16.82375,-1.55875" fill="#d6e5e5"></path><path d="M120.19217,65.82583c-3.18917,1.51933 -4.58667,1.45125 -7.45692,3.50808c-2.48325,1.78092 -4.82675,3.75175 -7.16667,5.71542c-5.50758,4.62608 -11.01158,9.25217 -16.51917,13.87825c-0.35475,0.301 -0.73458,0.60917 -1.19325,0.69158c-0.301,0.05375 -0.60917,0 -0.91017,-0.05733c-4.1495,-0.817 -7.92992,-2.87025 -11.8465,-4.46483c-3.91658,-1.59458 -7.68983,-1.63042 -11.99342,-1.07142c9.90792,7.783 18.53658,18.22125 24.49567,29.32242c11.16925,-15.60183 21.414,-31.9275 32.59042,-47.52217z" fill="#38b47b"></path><path d="M87.60533,115.13967c-0.03942,0 -0.07525,0 -0.11467,-0.00358c-0.61633,-0.03942 -1.17175,-0.39417 -1.462,-0.94242c-5.91967,-11.01875 -14.45158,-21.23483 -24.02625,-28.75625c-0.56617,-0.44792 -0.81342,-1.18967 -0.61992,-1.88483c0.18992,-0.69517 0.78117,-1.20758 1.49425,-1.30075c3.74458,-0.48017 8.20225,-0.72742 12.9,1.18967c1.075,0.43717 2.13925,0.91017 3.2035,1.37958c2.82008,1.25058 5.4825,2.43308 8.31333,2.9885c0.25442,0 0.48375,-0.14692 0.60917,-0.24725l16.512,-13.87825c2.31125,-1.94217 4.70133,-3.95242 7.27775,-5.80142c2.00667,-1.43692 3.4185,-1.96008 4.91633,-2.51192c0.80983,-0.29742 1.6985,-0.6235 2.8165,-1.15383c0.73817,-0.35475 1.62325,-0.15767 2.14283,0.46583c0.52317,0.63067 0.559,1.53008 0.08242,2.193c-5.60792,7.82958 -11.08325,15.98525 -16.37583,23.87575c-5.23525,7.8045 -10.64967,15.87417 -16.20742,23.64642c-0.34042,0.46583 -0.88508,0.74175 -1.462,0.74175zM67.682,85.49117c7.82958,6.837 14.82067,15.351 20.10967,24.50642c4.95575,-7.01258 9.804,-14.24017 14.50533,-21.25275c4.15667,-6.19558 8.42442,-12.556 12.7925,-18.80533c-0.40133,0.22933 -0.82775,0.50525 -1.30792,0.84567c-2.46533,1.77017 -4.80167,3.73383 -7.05917,5.633l-16.51917,13.88183c-0.44433,0.36908 -1.10367,0.91733 -2.03533,1.08217c-0.65933,0.1075 -1.25058,-0.00358 -1.5695,-0.06808c-3.22142,-0.63425 -6.19558,-1.94933 -9.06942,-3.225c-1.032,-0.45508 -2.06042,-0.91375 -3.09958,-1.33658c-2.09267,-0.84567 -4.20325,-1.25775 -6.74742,-1.26133z" fill="#010101"></path><path d="M111.27325,25.9505c-1.20758,-1.3975 -2.752,-2.49758 -3.81625,-4.00975c-1.13592,-1.6125 -1.69133,-3.655 -3.15692,-4.97725c-0.95317,-0.86 -2.15,-1.28283 -3.4185,-1.50142c-1.27567,-0.89583 -2.29333,-2.25392 -3.36833,-3.42925c-3.65142,-4.00617 -9.25933,-6.26008 -14.62717,-5.504c-5.36783,0.75608 -10.26267,3.35042 -11.81067,8.54625h0.01075c-0.774,-0.00358 -1.55517,-0.00717 -2.27542,-0.01075c-1.34375,-0.00717 -2.58,0.72742 -3.19992,1.92425c-2.13208,4.11008 -4.00258,8.41008 -5.04892,12.9c-0.18633,0.80267 -0.35475,1.66625 -0.05017,2.43308c0.54467,1.37958 2.26825,1.7845 3.73383,1.99592c7.75075,1.12517 19.21383,2.25033 26.961,1.118c4.22117,-0.61633 8.38142,-1.90275 12.64558,-1.77733c1.65192,0.04658 3.31458,0.30817 4.94858,0.05733c1.634,-0.24725 3.30025,-1.14308 3.8915,-2.68392c0.6665,-1.73075 -0.21142,-3.68367 -1.419,-5.08117z" fill="#bcbcbc"></path><path d="M150.5,39.70333c-0.46583,-3.79833 -1.00333,-7.2025 -3.01,-10.105c-3.04583,-4.44333 -10.39167,-6.05583 -15.73083,-6.05583h-0.03583c-3.58333,0 -12.83908,0.63425 -19.05258,1.29717c-0.01433,-0.01792 -0.02508,-0.03942 -0.03942,-0.05733c-0.54108,-0.63067 -1.14667,-1.20758 -1.75225,-1.78092c-0.74175,-0.69517 -1.43692,-1.35808 -1.95292,-2.09267c-0.387,-0.55183 -0.69517,-1.16458 -1.00692,-1.77017c-0.59483,-1.15742 -1.2685,-2.46892 -2.41158,-3.5045c-1.10725,-0.99617 -2.40442,-1.54083 -3.78042,-1.84183c-0.69517,-0.53033 -1.36883,-1.20758 -2.03175,-2.00667c-0.28667,-0.3225 -0.57333,-0.645 -0.86,-0.9675c-4.15667,-4.55083 -10.39167,-6.88 -16.19667,-6.05583c-6.28875,0.89942 -10.84317,3.94883 -12.75667,8.51042l-1.0535,-0.00717c-0.00717,0 -0.01792,0 -0.02867,0c-2.01742,0 -3.84133,1.10725 -4.76942,2.89175c-1.89558,3.65142 -3.27875,6.88358 -4.26058,9.9545c-16.99933,0.68083 -27.48775,3.21067 -31.13917,7.53575c-3.08167,3.61917 -4.515,8.95833 -4.01333,14.9425c0.3225,3.7625 1.25417,7.4175 2.18583,10.92917c0.3225,1.1825 0.60917,2.32917 0.89583,3.51167c4.26417,17.5225 3.08167,40.02583 2.07833,59.91333c-0.39417,7.48917 -0.7525,14.58417 -0.82417,21.24917c-0.07167,3.01 0.03583,6.16333 1.54083,8.88667c2.2575,4.085 6.84417,5.805 10.06917,6.7725c6.19917,1.79167 12.82833,2.40083 19.63667,2.40083c7.34583,0 14.90667,-0.71667 22.36,-1.43333c8.42083,-0.78833 16.41167,-1.54083 23.93667,-1.29l3.51167,0.1075c5.94833,0.25083 14.97833,0.60917 19.27833,0.215c5.33917,-0.50167 12.97167,-2.54417 16.8775,-6.70083c4.69417,-5.0525 5.73333,-12.29083 6.30667,-18.705c2.4725,-27.55583 1.72,-63.855 -1.97083,-94.74333zM48.84083,74.24667c-0.86,-9.38833 -1.64833,-18.31083 -2.07833,-26.15833c-0.3225,-5.805 0.82417,-9.3525 3.36833,-10.57083c1.21833,-0.57333 3.655,-0.60917 6.02,-0.645c2.6015,-0.02867 5.26033,-0.12183 7.29567,-0.8815c0.18275,0.02867 0.40492,0.07525 0.54825,0.09675c4.72642,0.68442 12.41983,1.6125 19.565,1.6125c2.79142,0 5.50042,-0.14333 7.912,-0.4945c1.39392,-0.20425 2.77708,-0.48017 4.16383,-0.7525c2.8165,-0.559 5.45025,-1.12158 8.17,-1.00692c0.46583,0.01075 0.93525,0.043 1.40467,0.07525c1.24342,0.08242 2.52267,0.16483 3.86283,-0.03942c1.21475,-0.18275 2.30408,-0.63067 3.2035,-1.25417c5.45742,0.03583 13.04692,0.63067 15.75592,1.462c0.60917,0.215 1.29,0.43 1.54083,0.78833c0.25083,0.3225 0.35833,1.00333 0.43,1.54083c5.66167,43.46583 6.235,78.29583 1.57667,100.79917c-0.03583,0.14333 -0.1075,0.50167 -0.1075,0.57333c-0.07167,0.03583 -0.3225,0.1075 -1.29,0.07167c-33.68333,-1.505 -57.835,-1.54083 -73.8525,-0.07167c-1.64833,0.14333 -3.18917,0.215 -4.04917,-0.50167c-1.11083,-0.93167 -1.075,-3.08167 -0.93167,-5.01667c1.25417,-17.2 -0.7525,-39.73917 -2.50833,-59.62667zM83.13333,8.31333c4.69417,-0.68083 9.675,1.21833 13.04333,4.90917l0.18275,0.20783c-4.56517,-0.01792 -10.13725,-0.05017 -15.58392,-0.086l-6.88,-0.043c2.2575,-3.46508 6.5575,-4.62967 9.23783,-4.988zM62.31058,30.28992c0.8815,-3.78042 2.43667,-7.74358 4.89483,-12.47717c0.30458,-0.59125 0.91375,-0.96033 1.58742,-0.96033c0.00358,0 0.00717,0 0.01075,0l11.94683,0.07525c5.84442,0.03942 11.87517,0.07525 16.60517,0.08958c2.28975,0.00717 4.4505,0.1075 5.74767,1.27567c0.65933,0.59483 1.12875,1.50858 1.62683,2.47608c0.387,0.75608 0.78117,1.51217 1.26492,2.19658c0.72383,1.02842 1.58742,1.849 2.42233,2.63733c0.516,0.48733 1.03558,0.97108 1.50142,1.51575c0.7525,0.87075 1.49425,2.24675 1.10725,3.26442c-0.35475,0.92092 -1.56233,1.41542 -2.49042,1.55517c-0.95317,0.1505 -1.98875,0.07883 -3.08883,0.00358c-0.51242,-0.03225 -1.02842,-0.06808 -1.53725,-0.07883c-3.08525,-0.10392 -6.08092,0.50525 -8.96908,1.075c-1.32583,0.26158 -2.65167,0.52675 -3.98467,0.72025c-8.43875,1.23983 -21.3065,-0.37267 -26.445,-1.12158c-1.73433,-0.25083 -2.22167,-0.61992 -2.32558,-0.8815c-0.12183,-0.29742 0.03942,-0.99258 0.12542,-1.36525zM148.8875,134.12417c-0.5375,6.05583 -1.3975,12.3625 -5.33917,16.59083c-3.01,3.18917 -9.49583,5.08833 -14.58417,5.55417c-4.04917,0.35833 -12.93583,0.03583 -18.84833,-0.215l-3.51167,-0.1075c-7.74,-0.25083 -16.19667,0.5375 -24.4025,1.32583c-13.93917,1.32583 -28.38,2.6875 -40.635,-0.86c-4.1925,-1.21833 -6.70083,-2.83083 -7.91917,-5.0525c-1.11083,-1.97083 -1.14667,-4.515 -1.11083,-7.13083c0.07167,-6.59333 0.43,-13.6525 0.82417,-21.10583c1.03917,-20.1025 2.18583,-42.92833 -2.18583,-60.9525c-0.28667,-1.1825 -0.57333,-2.365 -0.89583,-3.58333c-0.93167,-3.51167 -1.8275,-6.84417 -2.07833,-10.28417c-0.25083,-2.93833 -0.17917,-8.42083 3.15333,-12.3625c2.795,-3.27875 12.75667,-5.51117 27.40892,-6.18483c-0.21142,0.98183 -0.35833,2.0855 0.086,3.21783c0.03583,0.09317 0.11108,0.13617 0.15408,0.22217c-0.94958,0.05733 -1.9565,0.07525 -2.924,0.09317c-2.83083,0.03583 -5.55417,0.07167 -7.45333,0.9675c-4.01333,1.89917 -5.84083,6.62917 -5.44667,14.01083c0.43,7.955 1.25417,16.8775 2.07833,26.30167c1.75583,19.74417 3.7625,42.14 2.50833,59.0175c-0.14333,2.07833 -0.43,5.9125 2.22167,8.0625c1.3975,1.14667 3.1175,1.43333 4.6225,1.43333c0.7525,0 1.46917,-0.07167 2.0425,-0.14333c15.83833,-1.43333 39.84667,-1.3975 73.38667,0.1075c0.93167,0.07167 2.93833,0.14333 4.15667,-1.36167c0.60917,-0.7525 0.78833,-1.6125 0.89583,-2.15c5.94833,-28.88167 2.43667,-71.41583 -1.54083,-101.98167c-0.14333,-0.89583 -0.28667,-2.15 -1.075,-3.225c-0.89583,-1.1825 -2.22167,-1.68417 -3.40417,-2.0425c-1.79167,-0.5375 -4.87333,-0.9675 -8.17,-1.25417c-2.14642,-0.15767 -4.36808,-0.27592 -6.33175,-0.34042c0.13617,-0.78833 0.15767,-1.59817 -0.05017,-2.43308c5.977,-0.58408 13.96783,-1.13233 17.20717,-1.13233c4.73,0.17917 10.71417,1.3975 12.82833,4.515c1.54083,2.22167 2.00667,5.16 2.40083,8.4925c3.65142,30.6375 4.40392,66.65 1.93142,93.99083z" fill="#010101"></path><path d="M74.75908,25.63517c-0.39058,0 -0.7955,-0.14333 -1.15025,-0.41925c-0.78117,-0.61275 -0.80267,-1.83825 -0.1935,-2.61583c1.16817,-1.49425 3.49017,-1.32942 5.3535,-1.21117c0.29383,0.0215 0.55542,0.03942 0.76325,0.043l17.673,0.29383c0.989,0.01792 1.77733,0.83133 1.763,1.82392c-0.01433,0.98542 -0.67725,1.80958 -1.82033,1.75942l-17.67658,-0.29742c-0.258,-0.00358 -0.5805,-0.02508 -0.94242,-0.05017c-0.63067,-0.04658 -2.09983,-0.14692 -2.51908,0.04658c-0.32967,0.42642 -0.78117,0.62708 -1.25058,0.62708z" fill="#010101"></path></g></g></svg>