<svg xmlns="http://www.w3.org/2000/svg" x="0px" y="0px"
width="40" height="40"
viewBox="0 0 172 172"
style=" fill:#000000;"><g transform=""><g fill="none" fill-rule="nonzero" stroke="none" stroke-width="1" stroke-linecap="butt" stroke-linejoin="miter" stroke-miterlimit="10" stroke-dasharray="" stroke-dashoffset="0" font-family="none" font-weight="none" font-size="none" text-anchor="none" style="mix-blend-mode: normal"><path d="M0,172v-172h172v172z" fill="#ffffff"></path><g fill="#000000"><path d="M73.1,6.45c-2.35156,0 -4.3,1.94844 -4.3,4.3v6.45c0,2.35156 1.94844,4.3 4.3,4.3h4.3v4.87109c-32.72871,4.22441 -58.05,32.20801 -58.05,66.07891c0,36.78516 29.86484,66.65 66.65,66.65c36.78516,0 66.65,-29.86484 66.65,-66.65c0,-17.07402 -6.4416,-32.64473 -17.01523,-44.44453l3.04023,-3.04023c1.6209,0.84824 3.68691,0.61309 5.03906,-0.73906l2.41035,-2.40195v-0.0084c1.66289,-1.66289 1.66289,-4.41758 0,-6.08047l-7.70977,-7.70977c-0.83144,-0.83144 -1.93164,-1.24297 -3.04023,-1.24297c-1.10859,0 -2.20879,0.41153 -3.04024,1.24297l-2.41035,2.41035c-1.35215,1.35215 -1.58731,3.41816 -0.73906,5.03906l-3.48535,3.48535c-8.91914,-6.62637 -19.54316,-11.09434 -31.09941,-12.58926v-4.87109h4.3c2.35156,0 4.3,-1.94844 4.3,-4.3v-6.45c0,-2.35156 -1.94844,-4.3 -4.3,-4.3zM73.1,10.75h25.8v6.45h-25.8zM81.7,21.5h8.6v4.3h-8.6zM86,30.1c34.45879,0 62.35,27.89121 62.35,62.35c0,34.45879 -27.89121,62.35 -62.35,62.35c-34.45879,0 -62.35,-27.89121 -62.35,-62.35c0,-34.45879 27.89121,-62.35 62.35,-62.35zM135.37441,31.06582l7.70976,7.70976l-2.41035,2.41035l-7.70977,-7.70976zM86,36.55c-1.18418,0 -2.15,0.96582 -2.15,2.15c0,1.18418 0.96582,2.15 2.15,2.15c1.18418,0 2.15,-0.96582 2.15,-2.15c0,-1.18418 -0.96582,-2.15 -2.15,-2.15zM72.10899,38.38086c-0.05039,0 -0.10078,0 -0.15117,0.0084c-0.14277,0.0084 -0.28555,0.0252 -0.42832,0.06719c-1.14219,0.31074 -1.82246,1.48652 -1.52012,2.62871c0.31074,1.15059 1.48652,1.83086 2.63711,1.52012c1.15059,-0.30234 1.83086,-1.47813 1.52012,-2.62871c-0.25195,-0.93223 -1.0918,-1.5873 -2.05762,-1.5957zM99.89102,38.38926c-0.96582,0.0084 -1.80566,0.65508 -2.05762,1.5873c-0.31074,1.15059 0.36953,2.32637 1.52012,2.63711c1.15059,0.31074 2.32637,-0.36953 2.63711,-1.52012c0.30234,-1.15059 -0.37793,-2.32637 -1.52012,-2.62871c-0.19316,-0.05879 -0.38633,-0.08398 -0.57949,-0.07559zM132.07383,38.66641l3.40976,3.40977l-2.83027,2.83027c-1.15059,-1.13379 -2.33477,-2.21719 -3.56094,-3.25859zM59.07461,43.74746c-0.36113,0.0084 -0.71387,0.10918 -1.02461,0.29395c-0.49551,0.27715 -0.85664,0.74746 -1.00781,1.30176c-0.14277,0.5543 -0.06719,1.14219 0.21836,1.6293c0.28555,0.49551 0.75586,0.85664 1.31016,1.00781c0.5459,0.14278 1.13379,0.06719 1.6293,-0.21836c1.02461,-0.59629 1.37734,-1.90645 0.78105,-2.93945c-0.38633,-0.68027 -1.11699,-1.0918 -1.90644,-1.075zM112.77422,43.75586c-0.73066,0.03359 -1.39414,0.43672 -1.76367,1.0666c-0.59629,1.03301 -0.23516,2.34316 0.78945,2.93945c1.02461,0.59629 2.34316,0.24355 2.93105,-0.78945c0.59629,-1.02461 0.24356,-2.33476 -0.78105,-2.93105c-0.36113,-0.20996 -0.76426,-0.30234 -1.17578,-0.28555zM48.02227,52.29707c-0.57949,-0.0168 -1.14219,0.20996 -1.55371,0.62148c-0.83984,0.83984 -0.83984,2.20879 0,3.04863c0.40312,0.40313 0.94903,0.62988 1.52012,0.62988c0.57109,0 1.11699,-0.22676 1.52851,-0.62988c0.83145,-0.83984 0.83145,-2.20879 0,-3.04863c-0.40313,-0.39472 -0.93223,-0.62148 -1.49492,-0.62148zM124.03652,52.29707c-0.57949,-0.0084 -1.14219,0.21836 -1.55371,0.62148c-0.83145,0.83984 -0.83145,2.20879 0,3.04863c0.83984,0.83145 2.20879,0.83145 3.04863,0c0.83145,-0.83984 0.83145,-2.20879 0,-3.04863c-0.40313,-0.39472 -0.93223,-0.62148 -1.49492,-0.62148zM56.56348,61.03984l-2.98984,3.09062l24.97695,24.12031c-0.71387,1.24297 -1.15059,2.6707 -1.15059,4.19922c0,4.72832 3.87168,8.6 8.6,8.6c1.5873,0 3.05703,-0.46191 4.33359,-1.21777l4.33359,4.33359l3.04863,-3.04863l-4.33359,-4.33359c0.75586,-1.27656 1.21777,-2.74629 1.21777,-4.33359c0,-4.72832 -3.87168,-8.6 -8.6,-8.6c-1.6377,0 -3.15781,0.48711 -4.46797,1.30176zM132.49375,63.425c-0.36113,0.0084 -0.71387,0.10918 -1.02461,0.28555c-1.02461,0.59629 -1.37734,1.90644 -0.78945,2.93945c0.59629,1.02461 1.91484,1.37734 2.93945,0.78105c0.49551,-0.27715 0.85664,-0.74746 1.00781,-1.30176c0.14277,-0.5543 0.06719,-1.14219 -0.21836,-1.6293c-0.39473,-0.68027 -1.12539,-1.0918 -1.91484,-1.075zM39.34668,63.425c-0.72226,0.04199 -1.38574,0.44512 -1.75527,1.075c-0.28555,0.49551 -0.36113,1.0834 -0.21836,1.6293c0.15117,0.5543 0.5123,1.02461 0.99941,1.31016c1.03301,0.59629 2.34316,0.23516 2.93945,-0.78945c0.59629,-1.02461 0.24355,-2.34316 -0.78945,-2.93105c-0.35273,-0.20996 -0.76426,-0.31074 -1.17578,-0.29395zM34.06406,76.39219c-0.96582,0.0084 -1.80566,0.65508 -2.05762,1.5873c-0.31074,1.15059 0.36953,2.32637 1.52012,2.63711c1.15059,0.31074 2.32637,-0.36953 2.62871,-1.52012c0.31074,-1.15059 -0.36953,-2.32637 -1.52012,-2.63711c-0.18476,-0.05039 -0.37793,-0.07559 -0.57109,-0.06719zM138.00312,76.39219c-0.21836,-0.0084 -0.43672,0.0168 -0.63828,0.07559c-1.15059,0.31074 -1.83086,1.48653 -1.52012,2.63711c0.30234,1.14219 1.47813,1.82246 2.62871,1.52012c1.15059,-0.31074 1.83086,-1.48652 1.52012,-2.63711c-0.24355,-0.91543 -1.0498,-1.56211 -1.99043,-1.5957zM86,88.15c2.40195,0 4.3,1.89805 4.3,4.3c0,2.40195 -1.89805,4.3 -4.3,4.3c-2.40195,0 -4.3,-1.89805 -4.3,-4.3c0,-2.40195 1.89805,-4.3 4.3,-4.3zM32.25,90.3c-1.18418,0 -2.15,0.96582 -2.15,2.15c0,1.18418 0.96582,2.15 2.15,2.15c1.18418,0 2.15,-0.96582 2.15,-2.15c0,-1.18418 -0.96582,-2.15 -2.15,-2.15zM139.75,90.3c-1.18418,0 -2.15,0.96582 -2.15,2.15c0,1.18418 0.96582,2.15 2.15,2.15c1.18418,0 2.15,-0.96582 2.15,-2.15c0,-1.18418 -0.96582,-2.15 -2.15,-2.15zM34.16484,104.20781c-0.21836,0 -0.43672,0.0168 -0.63828,0.07559c-1.15059,0.31074 -1.83086,1.48653 -1.52012,2.63711c0.30234,1.14219 1.47812,1.82246 2.62871,1.52012c1.15059,-0.31074 1.83086,-1.48652 1.52012,-2.63711c-0.24355,-0.90703 -1.0498,-1.55371 -1.99043,-1.5957zM137.90234,104.21621c-0.97422,0.0084 -1.81406,0.66348 -2.05762,1.5957c-0.31074,1.15059 0.36953,2.32637 1.52012,2.62871c1.14219,0.31074 2.31797,-0.36953 2.62871,-1.51172c0.31074,-1.15059 -0.36953,-2.32637 -1.52012,-2.63711c-0.18476,-0.05039 -0.37793,-0.07559 -0.57109,-0.07559zM39.39707,117.175c-0.36113,0.0084 -0.70547,0.10918 -1.02461,0.28555c-1.02461,0.59629 -1.37734,1.90644 -0.78105,2.93945c0.27715,0.48711 0.74746,0.84824 1.30176,0.99941c0.5543,0.15117 1.14219,0.07559 1.6293,-0.21836c0.49551,-0.27715 0.85664,-0.74746 1.00781,-1.30176c0.14278,-0.5543 0.06719,-1.14219 -0.21836,-1.6293c-0.39473,-0.68027 -1.12539,-1.0918 -1.91484,-1.075zM132.44336,117.175c-0.73066,0.04199 -1.39414,0.44512 -1.76367,1.075c-0.58789,1.03301 -0.23516,2.34316 0.78945,2.93945c0.49551,0.28555 1.0834,0.36113 1.6293,0.21836c0.5543,-0.15117 1.02461,-0.5123 1.31016,-1.00781c0.28555,-0.48711 0.36113,-1.075 0.21836,-1.6293c-0.15117,-0.5543 -0.51231,-1.02461 -1.00781,-1.30176c-0.35274,-0.20996 -0.76426,-0.31074 -1.17578,-0.29395zM48.02227,128.30293c-0.57949,0 -1.14219,0.22676 -1.55371,0.62988c-0.83144,0.83984 -0.83144,2.20879 0,3.04863c0.83984,0.83145 2.20879,0.83145 3.04863,0c0.83145,-0.83984 0.83145,-2.20879 0,-3.04863c-0.40313,-0.39473 -0.93223,-0.62148 -1.49492,-0.62988zM124.03652,128.30293c-0.57949,0 -1.14219,0.22676 -1.55371,0.62988c-0.83145,0.83984 -0.83145,2.20879 0,3.04863c0.83984,0.83145 2.20879,0.83145 3.04863,0c0.83145,-0.83984 0.83145,-2.20879 0,-3.04863c-0.40313,-0.39473 -0.93223,-0.62148 -1.49492,-0.62988zM112.81621,136.84414c-0.35273,0.0084 -0.70547,0.10918 -1.01621,0.28555c-1.03301,0.59629 -1.38574,1.91484 -0.78945,2.93945c0.59629,1.02461 1.90644,1.38574 2.93945,0.78945c0.48711,-0.28555 0.84824,-0.75586 0.99941,-1.31016c0.15117,-0.5459 0.07559,-1.13379 -0.21836,-1.6293c-0.38633,-0.68028 -1.12539,-1.0918 -1.91484,-1.075zM59.02422,136.85254c-0.73906,0.03359 -1.40254,0.43672 -1.76367,1.075c-0.59629,1.02461 -0.23516,2.34316 0.78945,2.93105c1.02461,0.59629 2.34316,0.24355 2.93105,-0.78105c0.29395,-0.49551 0.36953,-1.0834 0.21836,-1.6293c-0.14277,-0.5543 -0.50391,-1.02461 -0.99941,-1.31016c-0.36113,-0.20996 -0.76426,-0.30234 -1.17578,-0.28555zM99.93301,142.21914c-0.05879,0 -0.10918,0 -0.15957,0.0084c-0.14277,0.0084 -0.28555,0.03359 -0.41992,0.06719c-0.5543,0.14277 -1.02461,0.50391 -1.31016,0.99941c-0.28555,0.49551 -0.36113,1.0834 -0.21836,1.6293c0.15117,0.5543 0.5123,1.02461 1.00781,1.31016c0.49551,0.28555 1.0834,0.36113 1.6377,0.20996c1.14219,-0.30234 1.82246,-1.47812 1.52012,-2.62871c-0.25195,-0.93223 -1.0918,-1.5873 -2.05762,-1.5957zM72.06699,142.22754c-0.96582,0 -1.80566,0.65508 -2.05762,1.5873c-0.31074,1.15059 0.36953,2.32637 1.52012,2.62871c1.15059,0.31074 2.32637,-0.36953 2.63711,-1.52012c0.30234,-1.14219 -0.37793,-2.31797 -1.52852,-2.62871c-0.18476,-0.05039 -0.37793,-0.07559 -0.57109,-0.06719zM86,144.05c-1.18418,0 -2.15,0.96582 -2.15,2.15c0,1.18418 0.96582,2.15 2.15,2.15c1.18418,0 2.15,-0.96582 2.15,-2.15c0,-1.18418 -0.96582,-2.15 -2.15,-2.15z"></path></g></g></g></svg>