<svg xmlns="http://www.w3.org/2000/svg" x="0px" y="0px"
width="48" height="48"
viewBox="0 0 172 172"
style=" fill:#000000;"><defs><linearGradient x1="75.29848" y1="119.01158" x2="35.78445" y2="119.01158" gradientUnits="userSpaceOnUse" id="color-1_sfrxQgZnSL1R_gr1"><stop offset="0" stop-color="#2c9200"></stop><stop offset="0.357" stop-color="#2a8c00"></stop><stop offset="0.84" stop-color="#257b00"></stop><stop offset="0.9" stop-color="#247800"></stop></linearGradient><linearGradient x1="65.21532" y1="94.29993" x2="36.07339" y2="109.14779" gradientUnits="userSpaceOnUse" id="color-2_sfrxQgZnSL1R_gr2"><stop offset="0" stop-color="#40d600"></stop><stop offset="0.492" stop-color="#40d800"></stop><stop offset="0.703" stop-color="#40df00"></stop><stop offset="0.86" stop-color="#41ec00"></stop><stop offset="0.99" stop-color="#41fd00"></stop><stop offset="1" stop-color="#41ff00"></stop></linearGradient><linearGradient x1="828.02476" y1="616.8525" x2="828.02476" y2="283.13483" gradientUnits="userSpaceOnUse" id="color-3_sfrxQgZnSL1R_gr3"><stop offset="0" stop-color="#2c9200"></stop><stop offset="0.357" stop-color="#2a8c00"></stop><stop offset="0.84" stop-color="#257b00"></stop><stop offset="0.9" stop-color="#247800"></stop></linearGradient><linearGradient x1="1153.61347" y1="650.68916" x2="1153.61347" y2="291.94236" gradientUnits="userSpaceOnUse" id="color-4_sfrxQgZnSL1R_gr4"><stop offset="0" stop-color="#40d600"></stop><stop offset="0.492" stop-color="#40d800"></stop><stop offset="0.703" stop-color="#40df00"></stop><stop offset="0.86" stop-color="#41ec00"></stop><stop offset="0.99" stop-color="#41fd00"></stop><stop offset="1" stop-color="#41ff00"></stop></linearGradient><linearGradient x1="1105.87071" y1="1142.10528" x2="1404.34269" y2="1494.59257" gradientUnits="userSpaceOnUse" id="color-5_sfrxQgZnSL1R_gr5"><stop offset="0" stop-color="#2c9200"></stop><stop offset="0.357" stop-color="#2a8c00"></stop><stop offset="0.84" stop-color="#257b00"></stop><stop offset="0.9" stop-color="#247800"></stop></linearGradient><linearGradient x1="1291.91792" y1="843.19117" x2="1716.37297" y2="1031.35679" gradientUnits="userSpaceOnUse" id="color-6_sfrxQgZnSL1R_gr6"><stop offset="0" stop-color="#40d600"></stop><stop offset="0.492" stop-color="#40d800"></stop><stop offset="0.703" stop-color="#40df00"></stop><stop offset="0.86" stop-color="#41ec00"></stop><stop offset="0.99" stop-color="#41fd00"></stop><stop offset="1" stop-color="#41ff00"></stop></linearGradient></defs><g fill="none" fill-rule="nonzero" stroke="none" stroke-width="1" stroke-linecap="butt" stroke-linejoin="miter" stroke-miterlimit="10" stroke-dasharray="" stroke-dashoffset="0" font-family="none" font-weight="none" font-size="none" text-anchor="none" style="mix-blend-mode: normal"><path d="M0,172v-172h172v172z" fill="none"></path><path d="M86,174.58c-48.92138,0 -88.58,-39.65862 -88.58,-88.58v0c0,-48.92138 39.65862,-88.58 88.58,-88.58h0c48.92138,0 88.58,39.65862 88.58,88.58v0c0,48.92138 -39.65862,88.58 -88.58,88.58z" fill="#8f4c4c"></path><g><g><path d="M75.29848,110.98572v16.05174c0,1.47752 -1.19777,2.67529 -2.67529,2.67529h-21.91062c-1.95115,-0.00443 -3.74521,-1.07061 -4.68176,-2.7823l-10.24636,-18.62002h36.83874c1.47752,0 2.67529,1.19777 2.67529,2.67529z" fill="url(#color-1_sfrxQgZnSL1R_gr1)"></path><path d="M46.96717,80.80845l17.60341,12.22607l-18.35249,28.38482c-1.06843,1.64177 -1.1506,3.73719 -0.21402,5.45759l-11.71777,-21.2418c-0.96189,-1.73023 -0.88985,-3.85016 0.18727,-5.5111z" fill="url(#color-2_sfrxQgZnSL1R_gr2)"></path><path d="M96.21925,44.10347l-18.53441,28.6577c-0.39418,0.60875 -1.01861,1.03138 -1.73025,1.17109c-0.71164,0.13971 -1.44951,-0.01549 -2.04458,-0.43003l-13.18383,-9.16822c-1.18448,-0.8234 -1.50283,-2.43764 -0.71965,-3.6491l9.13879,-14.14693c0.98862,-1.52091 2.6805,-2.43735 4.49449,-2.43451z" fill="url(#color-3_sfrxQgZnSL1R_gr3)"></path><path d="M113.39461,62.85725l-17.57665,12.22607l-18.4595,-28.54534c-0.98862,-1.52091 -2.6805,-2.43735 -4.49449,-2.43451h25.49551c1.81398,-0.00284 3.50587,0.9136 4.49449,2.43451z" fill="url(#color-4_sfrxQgZnSL1R_gr4)"></path><path d="M137.71299,105.63514l-10.19285,18.4595l-18.68422,-28.89313c-0.78494,-1.212 -0.46644,-2.8282 0.71965,-3.65177l13.20523,-9.17089c0.59521,-0.41342 1.33267,-0.56768 2.04368,-0.4275c0.71101,0.14019 1.33473,0.56282 1.72847,1.17123l10.98741,16.98541c1.07932,1.66565 1.15337,3.7904 0.19262,5.52715z" fill="url(#color-5_sfrxQgZnSL1R_gr5)"></path><path d="M137.7665,105.55488l-11.82478,21.40232c-0.94611,1.69888 -2.7372,2.75307 -4.68176,2.75555h-24.55916v-21.40232h36.38394c1.94456,-0.00248 3.73565,-1.05667 4.68176,-2.75555z" fill="url(#color-6_sfrxQgZnSL1R_gr6)"></path><path d="M92.7173,78.53713l18.32038,0.37187c0.58944,0.01249 1.11756,-0.3624 1.30019,-0.92297l5.53517,-16.96669c0.17927,-0.54669 -0.01111,-1.14678 -0.47276,-1.49013c-0.46165,-0.34335 -1.09113,-0.35305 -1.56314,-0.02408l-23.85823,16.5868c-0.48484,0.32829 -0.69982,0.93377 -0.53055,1.4943c0.16926,0.56054 0.68342,0.94583 1.26893,0.95091z" fill="#40d600"></path><path d="M44.56208,76.57881l18.32038,-0.37187c0.58872,-0.01286 1.11661,0.36079 1.30019,0.9203l5.53517,16.94529c0.1775,0.5463 -0.0136,1.14493 -0.4748,1.48734c-0.4612,0.34241 -1.08951,0.35215 -1.5611,0.0242l-23.85823,-16.57342c-0.47278,-0.33214 -0.67887,-0.9303 -0.511,-1.48317c0.16787,-0.55287 0.67174,-0.93546 1.24938,-0.94867z" fill="#40d600"></path><path d="M96.96833,103.52433l-10.70116,14.63919c-0.33917,0.48387 -0.33055,1.13052 0.0214,1.60517l10.80817,14.75957c0.34806,0.46435 0.95584,0.65131 1.50471,0.46286c0.54887,-0.18845 0.91363,-0.7093 0.90305,-1.28953l-0.12841,-29.39073c-0.00682,-0.57282 -0.37764,-1.07771 -0.92219,-1.2556c-0.54454,-0.17788 -1.14191,0.01073 -1.48557,0.46906z" fill="#40d600"></path></g></g></g></svg>