<svg xmlns="http://www.w3.org/2000/svg" x="0px" y="0px"
width="50" height="50"
viewBox="0 0 172 172"
style=" fill:#000000;"><g transform="translate(25.8,25.8) scale(0.7,0.7)"><g fill="none" fill-rule="nonzero" stroke="none" stroke-width="1" stroke-linecap="butt" stroke-linejoin="miter" stroke-miterlimit="10" stroke-dasharray="" stroke-dashoffset="0" font-family="none" font-weight="none" font-size="none" text-anchor="none" style="mix-blend-mode: normal"><path d="M0,172v-172h172v172z" fill="none" stroke="none"></path><g fill="#000000" stroke="none"><path d="M41.28,6.88c-18.96031,0 -34.4,15.45313 -34.4,34.4c0,12.06688 8.15656,26.64656 16.0175,38.86125c7.87438,12.22813 15.72188,21.80906 15.72188,21.80906l2.66062,3.225l2.64719,-3.225c0,0 7.86094,-9.51375 15.72188,-21.70156c7.86094,-12.20125 16.03094,-26.79437 16.03094,-38.96875c0,-18.94687 -15.43969,-34.4 -34.4,-34.4zM41.28,13.76c15.23813,0 27.52,12.28188 27.52,27.52c0,8.77469 -7.31,23.42156 -14.92906,35.23313c-6.28875,9.75562 -10.57531,14.88875 -12.59094,17.38812c-2.00219,-2.51281 -6.28875,-7.69969 -12.5775,-17.46875c-7.61906,-11.85187 -14.9425,-26.51219 -14.9425,-35.1525c0,-15.23812 12.28188,-27.52 27.52,-27.52zM41.28,27.52c-7.56531,0 -13.76,6.20813 -13.76,13.76c0,7.55188 6.19469,13.76 13.76,13.76c7.56531,0 13.76,-6.20812 13.76,-13.76c0,-7.55187 -6.19469,-13.76 -13.76,-13.76zM41.28,34.4c3.84313,0 6.88,3.03688 6.88,6.88c0,3.84313 -3.03687,6.88 -6.88,6.88c-3.84312,0 -6.88,-3.03687 -6.88,-6.88c0,-3.84312 3.03688,-6.88 6.88,-6.88zM130.72,68.8c-18.96031,0 -34.4,15.45313 -34.4,34.4c0,11.9325 8.17,26.48531 16.0175,38.74031c7.86094,12.255 15.70844,21.90312 15.70844,21.90312l2.64719,3.26531l2.67406,-3.23844c0,0 7.86094,-9.48688 15.72188,-21.66125c7.86094,-12.18781 16.03094,-26.79438 16.03094,-39.00906c0,-18.94687 -15.43969,-34.4 -34.4,-34.4zM130.72,75.68c15.23813,0 27.52,12.28188 27.52,27.52c0,8.84188 -7.31,23.47531 -14.92906,35.27344c-6.28875,9.72875 -10.56187,14.84844 -12.5775,17.34781c-1.98875,-2.52625 -6.30219,-7.76687 -12.59094,-17.58969c-7.6325,-11.89219 -14.9425,-26.57938 -14.9425,-35.03156c0,-15.23812 12.28188,-27.52 27.52,-27.52zM130.72,89.44c-7.56531,0 -13.76,6.20813 -13.76,13.76c0,7.55188 6.19469,13.76 13.76,13.76c7.56531,0 13.76,-6.20812 13.76,-13.76c0,-7.55187 -6.19469,-13.76 -13.76,-13.76zM130.72,96.32c3.84313,0 6.88,3.03688 6.88,6.88c0,3.84313 -3.03687,6.88 -6.88,6.88c-3.84312,0 -6.88,-3.03687 -6.88,-6.88c0,-3.84312 3.03688,-6.88 6.88,-6.88z"></path></g></g></g></svg>