<?xml version="1.0" encoding="utf-8"?>
<!-- Generator: Adobe Illustrator 24.2.1, SVG Export Plug-In . SVG Version: 6.00 Build 0)  -->
<svg version="1.1" id="Layer_1" xmlns="http://www.w3.org/2000/svg" xmlns:xlink="http://www.w3.org/1999/xlink" width="100%" height="100%" x="0px" y="0px"
	 viewBox="0 0 1366 768" style="enable-background:new 0 0 1366 768;" xml:space="preserve">
<style type="text/css">
	.st0{fill:#C1342F;}
	.st1{fill:#3D4E88;}
	.st2{fill:#E03230;}
</style>
<g>
	<g>
		<path class="st0" d="M724.8,441.5h5.9v22.5h-5.9v-2.4c-2.4,2-5,3-7.8,3c-3.5,0-6.4-1.1-8.7-3.4c-2.3-2.3-3.4-5.2-3.4-8.6
			c0-3.4,1.1-6.2,3.4-8.4s5.1-3.4,8.5-3.4c2.9,0,5.6,1.1,7.9,3.2V441.5z M710.9,452.6c0,2.2,0.7,3.9,2,5.3c1.3,1.4,3,2.1,5,2.1
			c2.2,0,3.9-0.7,5.3-2c1.3-1.4,2-3.1,2-5.2c0-2.1-0.7-3.8-2-5.2c-1.3-1.3-3.1-2-5.2-2c-2,0-3.7,0.7-5,2
			C711.5,448.9,710.9,450.6,710.9,452.6z"/>
		<path class="st0" d="M758.2,425h5.9v39h-5.9v-2.4c-2.3,2-4.9,3-7.8,3c-3.5,0-6.4-1.1-8.6-3.4c-2.3-2.3-3.4-5.2-3.4-8.6
			c0-3.4,1.1-6.2,3.4-8.4c2.3-2.3,5.1-3.4,8.5-3.4c3,0,5.6,1.1,8,3.2V425z M744.3,452.6c0,2.2,0.7,3.9,2,5.3c1.3,1.4,3,2.1,5,2.1
			c2.2,0,3.9-0.7,5.3-2c1.3-1.4,2-3.1,2-5.2c0-2.1-0.7-3.8-2-5.2c-1.3-1.3-3.1-2-5.2-2c-2,0-3.7,0.7-5,2
			C745,448.9,744.3,450.6,744.3,452.6z"/>
		<path class="st0" d="M776.1,441.5l6.6,12.6l6.5-12.6h6.6l-13.2,24l-13.1-24H776.1z"/>
		<path class="st0" d="M819,441.5h5.9v22.5H819v-2.4c-2.4,2-5,3-7.8,3c-3.5,0-6.4-1.1-8.7-3.4c-2.3-2.3-3.4-5.2-3.4-8.6
			c0-3.4,1.1-6.2,3.4-8.4c2.3-2.2,5.1-3.4,8.5-3.4c2.9,0,5.6,1.1,7.9,3.2V441.5z M805.1,452.6c0,2.2,0.7,3.9,2,5.3
			c1.3,1.4,3,2.1,5,2.1c2.2,0,3.9-0.7,5.3-2c1.3-1.4,2-3.1,2-5.2c0-2.1-0.7-3.8-2-5.2c-1.3-1.3-3.1-2-5.2-2c-2,0-3.7,0.7-5,2
			C805.8,448.9,805.1,450.6,805.1,452.6z"/>
		<path class="st0" d="M833.8,441.5h5.9v2.1c2-1.8,4.4-2.7,6.9-2.7c2.9,0,5.2,0.8,6.9,2.5c1.4,1.4,2.1,3.7,2.1,6.9v13.8h-5.9v-12.6
			c0-2.2-0.3-3.7-1-4.6c-0.7-0.9-1.9-1.3-3.7-1.3c-1.9,0-3.3,0.6-4.1,1.7c-0.8,1.1-1.2,3.1-1.2,5.9v10.8h-5.9V441.5z"/>
		<path class="st0" d="M884.2,442.4v6.9c-1.3-1.4-2.5-2.4-3.6-3c-1-0.6-2.3-0.8-3.7-0.8c-2.2,0-4,0.7-5.5,2.1
			c-1.5,1.4-2.2,3.1-2.2,5.1c0,2.1,0.7,3.8,2.1,5.2c1.4,1.4,3.2,2,5.4,2c1.4,0,2.6-0.3,3.7-0.8c1-0.5,2.3-1.5,3.7-3v6.9
			c-2.4,1.1-4.8,1.6-7.1,1.6c-3.9,0-7.2-1.1-9.8-3.4c-2.6-2.3-4-5.1-4-8.4c0-3.4,1.3-6.2,4-8.5c2.7-2.3,6-3.5,9.8-3.5
			C879.7,440.8,882,441.4,884.2,442.4z"/>
		<path class="st0" d="M914.5,453.9h-18.2c0.2,1.8,0.8,3.3,2,4.4c1.2,1.1,2.7,1.6,4.6,1.6c1.5,0,2.7-0.3,3.6-0.9
			c0.9-0.6,2-1.8,3.2-3.4l4.9,2.4c-0.8,1.2-1.6,2.1-2.4,3c-0.9,0.8-1.8,1.5-2.7,2c-1,0.5-2,0.9-3.1,1.2c-1.1,0.2-2.4,0.4-3.7,0.4
			c-3.8,0-6.8-1.1-9.1-3.2c-2.3-2.2-3.4-5-3.4-8.6c0-3.6,1.1-6.4,3.3-8.6c2.2-2.2,5.2-3.3,8.9-3.3c3.7,0,6.7,1.1,8.8,3.2
			c2.2,2.1,3.2,5,3.2,8.7L914.5,453.9z M908.5,449.7c-0.8-2.8-2.8-4.2-5.9-4.2c-0.7,0-1.4,0.1-2,0.3s-1.2,0.5-1.7,0.8
			c-0.5,0.4-0.9,0.8-1.3,1.3s-0.6,1.1-0.8,1.7H908.5z"/>
		<path class="st0" d="M941.1,425h5.9v39h-5.9v-2.4c-2.3,2-4.9,3-7.8,3c-3.5,0-6.4-1.1-8.6-3.4c-2.3-2.3-3.4-5.2-3.4-8.6
			c0-3.4,1.1-6.2,3.4-8.4c2.3-2.3,5.1-3.4,8.5-3.4c3,0,5.6,1.1,8,3.2V425z M927.2,452.6c0,2.2,0.7,3.9,2,5.3c1.3,1.4,3,2.1,5,2.1
			c2.2,0,3.9-0.7,5.3-2c1.3-1.4,2-3.1,2-5.2c0-2.1-0.7-3.8-2-5.2c-1.3-1.3-3.1-2-5.2-2c-2,0-3.7,0.7-5,2
			C927.8,448.9,927.2,450.6,927.2,452.6z"/>
		<path class="st0" d="M973.8,441.5h5.9v2.1c1.1-1,2.1-1.8,2.9-2.1c0.9-0.4,1.9-0.6,3.2-0.6c2.9,0,5.1,1.1,6.8,3.3
			c1.8-2.2,4.3-3.3,7.5-3.3c5.7,0,8.6,3.1,8.6,9.2v13.9h-5.9v-12.5c0-2.2-0.3-3.7-0.9-4.6c-0.6-0.9-1.6-1.4-3-1.4
			c-1.6,0-2.8,0.5-3.5,1.6s-1.1,2.8-1.1,5.2v11.6h-5.9v-12.4c0-4-1.3-6-3.9-6c-1.6,0-2.8,0.5-3.6,1.6s-1.1,2.8-1.1,5.2v11.6h-5.9
			V441.5z"/>
		<path class="st0" d="M1036.1,441.5h5.9v22.5h-5.9v-2.4c-2.4,2-5,3-7.8,3c-3.5,0-6.4-1.1-8.7-3.4c-2.3-2.3-3.4-5.2-3.4-8.6
			c0-3.4,1.1-6.2,3.4-8.4c2.3-2.2,5.1-3.4,8.5-3.4c2.9,0,5.6,1.1,7.9,3.2V441.5z M1022.2,452.6c0,2.2,0.7,3.9,2,5.3
			c1.3,1.4,3,2.1,5,2.1c2.2,0,3.9-0.7,5.3-2c1.3-1.4,2-3.1,2-5.2c0-2.1-0.7-3.8-2-5.2c-1.3-1.3-3.1-2-5.2-2c-2,0-3.7,0.7-5,2
			C1022.9,448.9,1022.2,450.6,1022.2,452.6z"/>
		<path class="st0" d="M1056.9,446.3v17.6h-5.9v-17.6h-2.5v-4.8h2.5v-8.2h5.9v8.2h4.6v4.8H1056.9z"/>
		<path class="st0" d="M1090.5,453.9h-18.2c0.2,1.8,0.8,3.3,2,4.4c1.2,1.1,2.7,1.6,4.6,1.6c1.5,0,2.7-0.3,3.6-0.9
			c0.9-0.6,2-1.8,3.2-3.4l4.9,2.4c-0.8,1.2-1.6,2.1-2.4,3c-0.9,0.8-1.8,1.5-2.7,2c-1,0.5-2,0.9-3.1,1.2c-1.1,0.2-2.4,0.4-3.7,0.4
			c-3.8,0-6.8-1.1-9.1-3.2c-2.3-2.2-3.4-5-3.4-8.6c0-3.6,1.1-6.4,3.3-8.6c2.2-2.2,5.2-3.3,8.9-3.3c3.7,0,6.7,1.1,8.8,3.2
			c2.2,2.1,3.2,5,3.2,8.7L1090.5,453.9z M1084.5,449.7c-0.8-2.8-2.8-4.2-5.9-4.2c-0.7,0-1.4,0.1-2,0.3s-1.2,0.5-1.7,0.8
			c-0.5,0.4-0.9,0.8-1.3,1.3s-0.6,1.1-0.8,1.7H1084.5z"/>
		<path class="st0" d="M1098.4,441.5h5.9v2c1.1-1,2-1.7,2.9-2.1c0.9-0.4,1.9-0.6,3-0.6c1.5,0,3.2,0.4,4.8,1.3l-2.7,4.8
			c-1.1-0.7-2.2-1.1-3.3-1.1c-3.2,0-4.8,2.1-4.8,6.4v11.7h-5.9V441.5z"/>
		<path class="st0" d="M1119.8,432.1c0-0.9,0.4-1.7,1.1-2.4s1.6-1,2.7-1c1.1,0,2,0.3,2.7,1c0.7,0.6,1.1,1.4,1.1,2.4
			c0,0.9-0.4,1.7-1.1,2.4c-0.7,0.7-1.6,1-2.7,1c-1.1,0-2-0.3-2.7-1S1119.8,433.1,1119.8,432.1z M1126.5,441.5v22.5h-5.9v-22.5
			H1126.5z"/>
		<path class="st0" d="M1154.1,441.5h5.9v22.5h-5.9v-2.4c-2.4,2-5,3-7.8,3c-3.5,0-6.4-1.1-8.7-3.4c-2.3-2.3-3.4-5.2-3.4-8.6
			c0-3.4,1.1-6.2,3.4-8.4s5.1-3.4,8.5-3.4c2.9,0,5.6,1.1,7.9,3.2V441.5z M1140.2,452.6c0,2.2,0.7,3.9,2,5.3c1.3,1.4,3,2.1,5,2.1
			c2.2,0,3.9-0.7,5.3-2c1.3-1.4,2-3.1,2-5.2c0-2.1-0.7-3.8-2-5.2c-1.3-1.3-3.1-2-5.2-2c-2,0-3.7,0.7-5,2
			C1140.9,448.9,1140.2,450.6,1140.2,452.6z"/>
		<path class="st0" d="M1174.7,425v39h-5.9v-39H1174.7z"/>
		<path class="st0" d="M1198.4,445.3l-4.8,2.3c-0.8-1.4-1.7-2.1-2.8-2.1c-0.5,0-1,0.2-1.4,0.5c-0.4,0.3-0.6,0.7-0.6,1.2
			c0,0.9,1.1,1.7,3.4,2.6c3.1,1.2,5.2,2.3,6.3,3.3c1.1,1,1.6,2.3,1.6,4c0,2.2-0.9,4-2.7,5.4c-1.8,1.4-3.9,2.1-6.4,2.1
			c-4.3,0-7.3-1.8-9-5.5l5-2.1c0.7,1.1,1.2,1.8,1.6,2.1c0.7,0.6,1.6,0.9,2.6,0.9c2,0,3-0.8,3-2.4c0-0.9-0.8-1.8-2.3-2.6
			c-0.6-0.3-1.2-0.5-1.8-0.8c-0.6-0.2-1.2-0.5-1.8-0.8c-1.7-0.7-2.9-1.5-3.6-2.2c-0.9-0.9-1.3-2.1-1.3-3.6c0-2,0.8-3.6,2.3-4.8
			c1.5-1.3,3.4-1.9,5.6-1.9C1194.4,440.8,1196.8,442.3,1198.4,445.3z"/>
	</g>
	<g>
		<path class="st1" d="M606.9,368.1c0-26.3,0-52.3,0-78.3c0-3.8,1-4.3,4.2-4.2c9.4,0.2,18.9,0.1,28.4,0.1c3.1,0,4,1.3,3.3,4.3
			c-0.2,0.6,0.1,1.4,0.1,2.1c0.7-0.3,1.5-0.4,1.9-0.9c4.6-4.6,10.1-7.1,16.7-7.8c10.5-1.2,20.4,0.2,29.7,5.1
			c6.3,3.3,11.3,8,15.6,13.6c4.1,5.3,6.9,11.3,8.5,17.8c1.2,4.6,2.3,9.4,2.7,14.1c0.6,6.6,1.1,13.4,0.5,20
			c-1,11.9-3.5,23.4-10.6,33.6c-5.4,7.7-11.8,14.3-20.7,18c-11.6,4.9-23.4,6.4-35.4,1.2c-2.3-1-4.3-2.7-6.4-4.1
			c-0.6-0.4-1.2-0.8-1.8-1.2c-0.3,0.8-0.8,1.6-0.8,2.4c-0.1,8.3,0,16.6,0,24.9c0,2.1,0.3,4.3-0.1,6.3c-0.3,1.5-1.1,3.6-2.3,4.2
			c-4.7,2.4-9.6,4.3-14.4,6.4c-5.3,2.3-10.6,4.7-15.9,7c-0.8,0.3-2.1,0.9-2.4,0.6c-0.6-0.7-0.8-1.7-0.8-2.6
			C606.9,423.2,606.9,395.8,606.9,368.1 M642.8,355.7c0,3.6,0.1,7.2,0,10.8c-0.1,2.3,1.1,3.7,2.9,5c3.4,2.4,7.3,3.8,11.4,4.2
			c6.2,0.7,12.2,0.1,17.1-4.4c6-5.5,7.9-12.7,8.4-20.3c0.5-6.3,0.3-12.7-1.6-19c-1.6-5.2-3.9-10-8.9-12.6
			c-8.6-4.5-17.3-3.3-25.5,1.2c-2.3,1.3-4.1,3.2-4,6.6C643,336.5,642.8,345.8,642.8,355.7z"/>
		<path class="st1" d="M522.2,284.6c6.3-0.5,12.4-1.3,18.5-1.1c7.4,0.2,14.7,1.6,21.5,4.9c5.5,2.7,10.8,5.7,15.2,10
			c6.8,6.7,11,15,13.2,24.2c2.4,9.7,1.5,19.6,1.7,29.5c0,1.5-0.4,3-0.5,4.5c-0.2,1.9-1.4,2.2-3.1,2.2c-14.9,0-29.8,0-44.6,0
			c-8.8,0-17.6,0-26.4,0c-4.5,0-5.7,1.6-4.3,6c2.5,7.7,7.4,12.7,15.7,14.6c11.2,2.5,21.1,0.4,30-6.8c1-0.8,2.3-1.6,3.1-2.6
			c1.6-1.9,3.2-1.5,4.6-0.1c5.6,5.4,11.2,10.9,16.7,16.4c1.1,1.1,1.2,2.3,0.1,3.6c-7.2,8.2-16.1,14.1-26.4,17.4
			c-8.8,2.9-18.1,3.8-27.4,2.8c-9.8-1-19.4-3.5-27.6-9c-6.3-4.2-11.5-9.6-15.4-16.2c-3.9-6.5-6.5-13.5-7.8-20.9
			c-1.4-7.6-2.3-15.2-1.6-22.8c0.8-8.7,1.9-17.6,5.8-25.5c5.7-11.7,13.8-21.3,26.2-26.6C513.3,287.2,517.8,286.1,522.2,284.6
			 M516.7,321.6c-1,2.1-2.2,4.1-3,6.2c-1.2,3.3-0.4,4.3,3.2,4.3c2.6,0,5.2-0.4,7.9-0.4c9.9,0.1,19.9,0.3,29.8,0.3
			c1.3,0,3.4-0.2,3-2.8c-1.1-6.6-5.9-12.6-12-14.8c-5.1-1.8-10.2-2.2-15.6-1.2C524.4,314.3,520,316.8,516.7,321.6z"/>
		<path class="st1" d="M1177.1,290c7.1,3.6,11.9,9.2,14.6,16.2c1.8,4.8,3.3,9.9,3.3,15.3c0,27.2,0.3,54.4,0.5,81.7
			c0,3.3-0.5,3.8-4,3.8c-9.5,0-19.1-0.1-28.6,0c-2.5,0-3.4-0.9-3.4-3.4c0.1-21.1,0.3-42.2-0.1-63.4c-0.1-6.1-0.7-12.4-4.8-17.7
			c-2.1-2.8-4.9-4.4-8.2-5.2c-5.7-1.4-11.3-0.9-16.7,1.5c-4.9,2.2-7.2,6.4-8.9,11.1c-1.8,4.9-1.7,10-1.7,15.1
			c0.1,19.5,0,38.9,0.1,58.4c0,2.7-1.1,3.5-3.5,3.5c-9.8,0-19.7,0-29.5,0c-2.1,0-3-0.7-3-2.9c0-38.5,0-77.1,0-115.6
			c0-2,0.9-2.8,2.8-2.8c10.1,0,20.2,0,30.3,0c2,0,2.9,0.8,2.8,2.8c-0.1,1.9,0,3.9,0,5.8c0,0.4,0.3,0.8,0.6,1.1
			c0.1,0.1,0.7-0.2,0.9-0.4c5-5.8,11.6-9.3,19-10.8c9.4-2,19-2,28.3,1.1C1171.1,286.2,1174,288.2,1177.1,290z"/>
		<path class="st1" d="M1017.5,409.7c-3.4,0-6.5,0.1-9.5,0c-12.6-0.3-24.3-3.7-34.2-11.4c-7.7-6-12.9-14-16.4-23.1
			c-3.4-9.1-4.6-18.4-4.6-28.1c0-9.1,0.6-18,3.6-26.5c2.4-6.9,5.7-13.3,10.4-19c6.9-8.3,15.8-13.8,26.1-16.6
			c8.2-2.3,16.7-2.5,25.4-1.6c6.7,0.7,12.9,2.5,18.9,5.2c3.2,1.4,6.2,3.4,8.8,5.7c9.1,7.8,15.9,17.1,18.7,28.9
			c1,4.2,1.8,8.4,2.2,12.6c0.5,5.5,0.8,11.1,0.5,16.6c-0.3,7-1.6,13.8-3.7,20.6c-2.5,8-6.7,15-12.2,21c-6.2,6.8-14.4,11.1-23.4,13.5
			C1024.6,408.3,1021.2,408.9,1017.5,409.7 M989.4,356.8c0.4,1.2,0.7,2.5,1.1,3.7c3.4,9.6,10.6,16.1,21.7,15.4
			c4.6-0.3,8.9-1.9,11.8-5.2c5.2-5.9,7.6-13.1,7.5-20.9c-0.1-5-0.2-10.1-1.2-15c-0.7-3.7-2.3-7.5-4.5-10.5
			c-4.5-6.1-10.9-8.2-18.7-7.1c-6.8,1-10.8,5-14.3,10.2c-2.6,3.9-3.3,8.5-3.9,13c-0.4,2.9-0.6,5.7-0.5,8.6
			C988.4,351.4,989,353.8,989.4,356.8z"/>
		<path class="st1" d="M805,316.5c-1.4,1.2-2.7,2.2-3.9,3.3c-2.6,2.5-4.7,0.9-6.8-0.7c-6.8-5.2-14.4-7.9-23-7.3
			c-2.6,0.2-5.3,1.2-7.8,2.2c-4.2,1.7-3.4,7.5-0.8,9.4c5.2,4,11.5,5.7,17.6,7.7c5.4,1.8,11.1,3,16.3,5.3c5.8,2.7,11.4,6.1,16.7,9.7
			c6.4,4.3,9.8,10.6,10.9,18.2c1,6.6,1,13.1-1.1,19.6c-1.9,5.9-5.2,10.9-10,14.7c-5.8,4.5-12.4,7.6-19.7,9.1
			c-9.7,2-19.3,2.8-29.3,1.1c-8.4-1.5-16.3-3.9-23.6-7.9c-5.8-3.2-11.2-7-15.3-12.4c-1.3-1.7-0.8-2.5,0.3-3.5c3-2.7,6-5.3,9.1-7.8
			c3-2.5,6.1-4.8,9-7.3c2.4-2,3.7-2.1,6-0.1c5.8,5,12.4,8.8,19.9,10.6c5.5,1.3,11.2,0.8,16.6-0.6c3-0.8,5.9-2.9,6.5-6.5
			c0.7-4.1-1.6-6.8-5.2-8.3c-7.2-3-14.5-6-21.8-8.9c-10.7-4.2-21.5-8.3-29.8-16.6c-4.6-4.6-6.5-10.5-7.8-16.7
			c-1.2-5.5-0.2-10.7,1.4-15.6c1.5-4.6,4.2-8.9,8.1-12.2c5.6-4.7,12.1-8,19.1-9.9c8.1-2.2,16.3-3,24.7-1.6c3.1,0.5,6.3,0.5,9.3,1.2
			c2.8,0.6,5.6,1.4,8.1,2.8c5.1,2.7,10,5.7,14.8,8.8c2,1.3,3.6,3.1,5.4,4.6c1.9,1.6,2.2,3,0,4.7c-4,2.9-8,6-11.9,9
			C806.4,315,805.8,315.7,805,316.5z"/>
		<path class="st1" d="M936.1,403.6c0,2.6-1.2,3.3-3.4,3.3c-9.9,0-19.8,0-29.8,0c-2.4,0-2.9-1.3-2.9-3.3c0-13.3,0-111.9,0-148
			c0-2.7,1-4.1,3.4-5.2c6-2.6,11.9-5.5,17.9-8.2c4.2-1.9,8.4-3.5,12.6-5.4c2.2-1,2.6,0.4,2.6,1.9C936.4,243.5,936,353.5,936.1,403.6
			z"/>
		<path class="st1" d="M877.1,403.8c0,2.2-0.8,3.1-3.1,3.1c-9.9-0.1-19.8-0.1-29.8,0c-2.2,0-3.2-0.8-3.2-3c0-38.5,0-76.9,0-115.4
			c0-2.3,1.1-2.9,3.2-2.9c10,0.1,20,0.1,30,0c2.3,0,2.7,0.8,2.7,2.9C877,321.4,877,398.5,877.1,403.8z"/>
		<circle class="st1" cx="859.7" cy="254.9" r="19.6"/>
	</g>
	<path class="st2" d="M170,318.8c2.4-0.3,4.7-0.7,7-0.7c15.4,0,30.9-0.1,46.3,0c62.4,0.2,124.7,0.4,187.1,0.6c4.4,0,8.5,2.1,8.7,6.7
		c0,1,0,2-0.4,2.9c-5.2,12.3-10.6,24.6-15.8,36.9c-1.8,4.1-3.4,8.3-5,12.4c-1.1,2.7-4.2,4.7-7.1,4.8c-11,0.2-22,0.5-33,0.5
		c-47.5,0.1-94.9,0-142.4,0c-6.6,0-13.1-0.3-19.7-0.6c-3.1-0.1-4.3-2.6-5.5-5c-2.8-5.5-5.4-11-8-16.6c-3.6-7.6-7-15.3-10.6-22.9
		c-1.4-3-3-6-4.7-8.9C164.9,325.6,165.9,321.9,170,318.8z"/>
	<path class="st2" d="M413.3,475.1c-15.6,0-31-0.1-46.3,0c-37.6,0.2-75.3,0.3-112.9,0.6c-3.9,0-6.3-1.7-7.9-4.9
		c-6.9-14.1-13.7-28.2-20.5-42.4c-0.9-1.9-1.6-3.9-2.3-5.9c-1.6-4.6,1.1-8.3,6-8.4c28.5-0.2,57.1-0.4,85.6-0.6c7.6,0,15.2,0,22.7,0
		c34.5-0.2,69-0.4,103.5-0.6c3.5,0,6.2,1.4,7.8,4.3c5.6,9.7,11,19.5,16.6,29.2c3.3,5.8,6.9,11.5,10.2,17.4c1.4,2.5,1.5,5.2-0.4,7.9
		c-1.4,2.1-3.2,2.5-5.5,2.6C451.2,474.7,432.4,474.9,413.3,475.1z"/>
	<path class="st2" d="M242.5,234.4c1.6-3.1,2.6-6.4,6.3-7.4c1-0.3,2-0.4,3-0.4c70.2,0,140.5,0,210.7,0c6.7,0,10,5.2,7,11.1
		c-3,6.1-6.1,12.3-9,18.4c-2.9,6-5.8,12-8.7,18c-1.3,2.7-2.8,5.3-3.8,8.1c-2.5,6.6-7.3,6.3-12.8,6.3c-1.3,0-2.5,0-3.8,0
		c-68.4,0-136.9,0-205.3-0.1c-2.1,0-4.5-0.4-6.2-1.5c-3.4-2.1-4-5.5-2.1-9.2c3.9-7.2,8.2-14.3,12.2-21.4c3.5-6.3,7-12.7,10.5-19
		C241.1,236.4,241.8,235.5,242.5,234.4z"/>
</g>
</svg>
