<svg xmlns="http://www.w3.org/2000/svg" x="0px" y="0px"
width="64" height="64"
viewBox="0 0 512 512"
style=" fill:#000000;"><path d="M170.276,447.071c.474,0,.883,0,1.357,0a338.8,338.8,0,0,0,61.6-5.662c21.653-4.155,40-10.429,53.1-18.143a70.86,70.86,0,0,0,9.942-6.988c8.788,20.25,50.433,30.791,91.608,30.791l.93,0a221.729,221.729,0,0,0,40.419-3.726C462.212,437.019,481,424.2,481,408.187V232.226c0-25.529-46.83-38.885-93.213-38.885-23.7,0-45.845,3.382-62.814,9.523A76.744,76.744,0,0,0,310,210.055V120.5c0-36.093-71.9-55.569-139.5-55.569S31,84.4,31,120.5v271.01C31,427.6,102.714,447.071,170.276,447.071Zm60.15-21.382a322.985,322.985,0,0,1-60.148,5.382c-34.214,0-66.176-4.776-90.143-13.448C59.647,410.21,47,400.2,47,391.505V327.677c25,18.747,75.328,28.641,123.5,28.641S269,346.424,294,327.677V391.5C294,402.11,273.96,417.336,230.426,425.689Zm226.068-8.246c-7.216,4.251-17.623,7.775-30.164,10.182a204.76,204.76,0,0,1-38.235,3.447c-50.042,0-77.1-15.117-77.1-22.884V372.022c17,10.646,47.292,16.125,77,16.125s60-5.479,77-16.125v36.165C465,410.8,461.9,414.259,456.494,417.443ZM465,349.263c0,7.767-26.958,22.884-77,22.884s-77-15.117-77-22.884V313.5c17,10.646,47.292,16.125,77,16.125s60-5.479,77-16.125v35.759Zm-77-35.634c-50.042,0-77-15.117-77-22.884v-35.76c17,10.647,47.418,16.126,77.126,16.126,23.7,0,45.865-3.382,62.834-9.524A84.6,84.6,0,0,0,465,254.975v35.77C465,298.512,438.042,313.629,388,313.629Zm-.087-104.288c50.042,0,77.34,15.117,77.34,22.885s-27.3,22.885-77.34,22.885-77.34-15.118-77.34-22.885S337.871,209.341,387.913,209.341ZM79.967,94.381c23.973-8.676,56.013-13.455,90.217-13.455s66.243,4.779,90.217,13.455c20.491,7.416,33.22,17.422,33.22,26.114s-12.728,18.7-33.22,26.113c-23.974,8.676-56.014,13.454-90.217,13.454s-66.243-4.778-90.217-13.454c-20.491-7.416-33.22-17.422-33.22-26.113S59.476,101.8,79.967,94.381ZM47,147.422c25,18.747,75.328,28.64,123.5,28.64s98.5-9.893,123.5-28.64v63.2c0,8.7-12.916,18.706-33.4,26.119-23.968,8.672-56.1,13.448-90.319,13.448s-66.175-4.776-90.143-13.448C59.647,229.329,47,219.321,47,210.623Zm0,90.128c25,18.746,75.328,28.64,123.5,28.64S269,256.3,294,237.549v63.2c0,8.7-12.916,18.707-33.4,26.12-23.968,8.672-56.1,13.448-90.319,13.448s-66.175-4.776-90.143-13.449C59.647,319.456,47,309.448,47,300.75v-63.2Z"></path></svg>